#N canvas 159 22 1359 784 10;
#X obj 156 -289 notein;
#X obj 157 -241 mtof;
#X obj 159 -191 osc~;
#X obj 163 -115 *~;
#X obj 265 -248 moses 1;
#X obj 311 -155 line;
#X obj 285 -88 dbtorms;
#X obj 170 -55 *~;
#X obj 181 77 *~;
#X obj 85 -142 vsl 15 128 0 1 0 0 empty empty empty 0 -9 0 10 -262144
-1 -1 3100 1;
#X floatatom 85 36 5 0 0 0 - - -;
#X obj 501 -291 notein;
#X obj 496 -240 mtof;
#X obj 493 -173 * 2;
#X floatatom 526 -205 5 0 0 0 - - -;
#X obj 496 -124 osc~;
#X obj 501 -80 *~;
#X floatatom 659 -273 5 0 0 0 - - -;
#X obj 630 -199 tgl 15 0 empty empty empty 17 7 0 10 -262144 -1 -1
0 127;
#X obj 619 -157 moses 1;
#X msg 610 -111 0.95 250;
#X msg 710 -113 0 250;
#X obj 647 -49 line;
#X obj 495 -29 *~;
#X obj 387 211 dac~;
#X obj 485 44 *~;
#X obj 546 42 hsl 128 15 0 1 0 0 empty empty empty -2 -8 0 10 -262144
-1 -1 3700 1;
#X floatatom 565 84 5 0 0 0 - - -;
#X obj 343 138 +~;
#X obj 812 -309 notein;
#X obj 807 -258 mtof;
#X obj 804 -191 * 2;
#X floatatom 821 -215 5 0 0 0 - - -;
#X obj 807 -142 osc~;
#X obj 812 -98 *~;
#X floatatom 978 -304 5 0 0 0 - - -;
#X obj 941 -217 tgl 15 0 empty empty empty 17 7 0 10 -262144 -1 -1
0 127;
#X obj 930 -175 moses 1;
#X msg 921 -129 0.95 250;
#X obj 958 -67 line;
#X obj 806 -47 *~;
#X obj 796 26 *~;
#X obj 883 25 hsl 128 15 0 1 0 0 empty empty empty -2 -8 0 10 -262144
-1 -1 4900 1;
#X floatatom 876 66 5 0 0 0 - - -;
#X obj 606 -239 pipe 1000;
#X obj 917 -257 pipe 1000;
#X floatatom 321 -17 5 0 0 0 - - -;
#X obj 567 -244 vsl 15 100 0 3.14 0 0 empty empty empty 0 -9 0 10 -262144
-1 -1 3300 1;
#X obj 863 -261 vsl 15 100 3 7 0 0 empty empty empty 0 -9 0 10 -262144
-1 -1 2300 1;
#X obj 219 -156 stripnote;
#X obj 197 3 *~;
#X msg 1021 -131 0 750;
#X msg 354 -198 0 1000;
#X msg 272 -198 0.95 50;
#X obj 113 290 writesf~ 2;
#X msg 124 182 start;
#X msg 158 210 stop;
#X msg -20 110 open /Users/ccluff/Desktop/audio.wav;
#X connect 0 0 1 0;
#X connect 0 0 49 0;
#X connect 0 1 4 0;
#X connect 0 1 6 0;
#X connect 0 1 49 1;
#X connect 1 0 2 0;
#X connect 2 0 3 0;
#X connect 3 0 7 0;
#X connect 4 0 52 0;
#X connect 4 1 53 0;
#X connect 5 0 7 1;
#X connect 6 0 23 0;
#X connect 6 0 46 0;
#X connect 6 0 40 0;
#X connect 6 0 3 1;
#X connect 7 0 50 0;
#X connect 8 0 28 0;
#X connect 9 0 8 1;
#X connect 9 0 10 0;
#X connect 11 0 12 0;
#X connect 11 1 44 0;
#X connect 12 0 13 0;
#X connect 13 0 15 0;
#X connect 14 0 13 1;
#X connect 15 0 16 0;
#X connect 16 0 23 1;
#X connect 17 0 44 1;
#X connect 18 0 19 0;
#X connect 19 0 21 0;
#X connect 19 1 20 0;
#X connect 20 0 22 0;
#X connect 21 0 22 0;
#X connect 22 0 16 1;
#X connect 23 0 25 0;
#X connect 25 0 28 0;
#X connect 26 0 27 0;
#X connect 26 0 25 1;
#X connect 28 0 24 1;
#X connect 28 0 24 0;
#X connect 29 0 30 0;
#X connect 29 1 45 0;
#X connect 30 0 31 0;
#X connect 31 0 33 0;
#X connect 32 0 31 1;
#X connect 33 0 34 0;
#X connect 34 0 40 1;
#X connect 35 0 45 1;
#X connect 36 0 37 0;
#X connect 37 0 51 0;
#X connect 37 1 38 0;
#X connect 38 0 39 0;
#X connect 39 0 34 1;
#X connect 40 0 41 0;
#X connect 41 0 28 1;
#X connect 42 0 43 0;
#X connect 42 0 41 1;
#X connect 44 0 18 0;
#X connect 45 0 36 0;
#X connect 47 0 13 1;
#X connect 48 0 31 1;
#X connect 48 0 32 0;
#X connect 49 1 6 0;
#X connect 50 0 8 0;
#X connect 51 0 39 0;
#X connect 52 0 5 0;
#X connect 53 0 5 0;
#X connect 55 0 54 0;
#X connect 56 0 54 0;
#X connect 57 0 54 0;
