#N canvas 557 203 450 300 10;
#X obj 216 -187 pow;
#X floatatom 122 -269 5 0 0 0 - - -;
#X floatatom 217 -161 5 0 0 0 - - -;
#X msg 125 -215 2;
#X obj 286 -270 notein;
#X floatatom 70 -141 5 0 0 0 - - -;
#X obj 143 -94 *;
#X obj 251 -111 pow;
#X obj 296 -182 - 1;
#X obj 125 -51 osc~;
#X obj 211 -55 hsl 128 15 0 1 0 0 empty empty empty -2 -8 0 10 -262144
-1 -1 0 1;
#X obj 135 -17 *~;
#X obj 137 7 dac~;
#X obj 250 -216 / 9;
#X floatatom 218 -243 5 0 0 0 - - -;
#X obj 83 -234 bng 15 250 50 0 empty empty empty 17 7 0 10 -262144
-1 -1;
#X floatatom 174 -71 5 0 0 0 - - -;
#X obj 65 -69 mtof;
#X floatatom 313 -151 5 0 0 0 - - -;
#X connect 0 0 2 0;
#X connect 1 0 8 0;
#X connect 1 0 15 0;
#X connect 2 0 7 0;
#X connect 3 0 0 0;
#X connect 4 0 1 0;
#X connect 5 0 6 0;
#X connect 6 0 9 0;
#X connect 6 0 16 0;
#X connect 7 0 6 1;
#X connect 8 0 7 1;
#X connect 8 0 18 0;
#X connect 9 0 11 0;
#X connect 10 0 11 1;
#X connect 11 0 12 0;
#X connect 11 0 12 1;
#X connect 13 0 0 1;
#X connect 14 0 13 0;
#X connect 15 0 3 0;
#X connect 15 0 14 0;
#X connect 15 0 5 0;
