#N canvas 773 22 500 373 10;
#X obj 79 14 notein;
#X obj 75 64 pack;
#X obj 84 109 poly 4;
#X obj 95 160 pack f f f;
#X obj 102 218 route 1 2 3 4;
#X floatatom 24 43 5 0 0 0 - - -;
#X obj 96 264 voice;
#X obj 157 266 voice;
#X obj 206 269 voice;
#X obj 282 267 voice;
#X obj 174 332 *~;
#X obj 180 357 dac~;
#X obj 320 315 loadbang;
#X msg 322 343 0.25;
#X connect 0 0 1 0;
#X connect 0 0 5 0;
#X connect 0 1 1 1;
#X connect 1 0 2 0;
#X connect 2 0 3 0;
#X connect 2 1 3 1;
#X connect 2 2 3 2;
#X connect 3 0 4 0;
#X connect 4 0 6 0;
#X connect 4 1 7 0;
#X connect 4 2 8 0;
#X connect 4 3 9 0;
#X connect 6 0 10 0;
#X connect 7 0 10 0;
#X connect 8 0 10 0;
#X connect 9 0 10 0;
#X connect 10 0 11 0;
#X connect 10 0 11 1;
#X connect 12 0 13 0;
#X connect 13 0 10 1;
