#N canvas 597 140 538 725 10;
#X floatatom 309 -15 5 0 0 0 - - -;
#X obj 304 12 hsl 50 15 0 1 0 0 empty empty empty -2 -8 0 10 -262144
-1 -1 400 1;
#X floatatom 299 38 5 0 0 0 - - -;
#X floatatom 356 43 5 0 0 0 - - -;
#X obj 351 70 hsl 50 15 0 1 0 0 empty empty empty -2 -8 0 10 -262144
-1 -1 0 1;
#X floatatom 346 96 5 0 0 0 - - -;
#X obj 44 111 notein;
#X obj 52 148 mtof;
#X obj 73 230 osc~;
#X obj 119 295 *~;
#X obj 117 332 *~;
#X obj 123 373 *~;
#X obj 114 428 dac~;
#X obj 214 127 t b;
#X obj 217 177 / 1;
#X floatatom 251 203 5 0 0 0 - - -;
#X obj 162 204 t b;
#X obj 189 238 *;
#X obj 188 275 osc~;
#X floatatom 20 202 5 0 0 0 - - -;
#X floatatom 22 320 5 0 0 0 - - -;
#X obj 390 263 loadbang;
#X obj 287 316 / 127;
#X msg 354 316 5;
#X msg 397 317 1;
#X msg 442 316 65;
#X msg 484 321 500;
#X obj 295 380 adsr 1 1 1;
#X obj 380 432 hsl 128 15 0 1 0 0 empty empty empty -2 -8 0 10 -262144
-1 -1 2100 1;
#X floatatom 405 472 5 0 0 0 - - -;
#X connect 0 0 1 0;
#X connect 1 0 2 0;
#X connect 1 0 14 0;
#X connect 3 0 4 0;
#X connect 4 0 5 0;
#X connect 4 0 14 1;
#X connect 4 0 13 0;
#X connect 6 0 7 0;
#X connect 6 1 27 0;
#X connect 6 1 22 0;
#X connect 7 0 8 0;
#X connect 7 0 17 0;
#X connect 7 0 19 0;
#X connect 8 0 9 0;
#X connect 9 0 10 0;
#X connect 10 0 11 0;
#X connect 11 0 12 0;
#X connect 11 0 12 1;
#X connect 13 0 14 0;
#X connect 14 0 15 0;
#X connect 14 0 17 1;
#X connect 14 0 16 0;
#X connect 16 0 17 0;
#X connect 17 0 18 0;
#X connect 17 0 20 0;
#X connect 18 0 9 1;
#X connect 21 0 23 0;
#X connect 21 0 24 0;
#X connect 21 0 25 0;
#X connect 21 0 26 0;
#X connect 22 0 27 1;
#X connect 23 0 27 2;
#X connect 24 0 27 3;
#X connect 25 0 27 4;
#X connect 26 0 27 5;
#X connect 27 0 10 1;
#X connect 28 0 29 0;
#X connect 28 0 11 1;
