#N canvas 0 22 450 300 10;
#X obj 170 69 inlet;
#X obj 163 101 abs;
#X obj 172 140 moses 1;
#X obj 169 198 outlet;
#X obj 263 188 outlet;
#X connect 0 0 1 0;
#X connect 1 0 2 0;
#X connect 2 0 3 0;
#X connect 2 1 4 0;
