#N canvas 980 175 450 300 10;
#X obj 20 34 vsl 15 128 0 7 0 0 empty empty empty 0 -9 0 10 -262144
-1 -1 2000 1;
#X obj 49 42 vsl 15 128 0 8 0 0 empty empty empty 0 -9 0 10 -262144
-1 -1 3100 1;
#X floatatom 15 199 5 0 0 0 - - -;
#X floatatom 76 196 5 0 0 0 - - -;
#X obj 22 240 osc~;
#X obj 129 238 *~;
#X obj 146 16 notein;
#X obj 155 63 mtof;
#X floatatom 171 98 5 0 0 0 - - -;
#X obj 140 144 osc~;
#X obj 241 42 / 127;
#X obj 230 101 adsr 1 1 1 1;
#X obj 237 150 env~;
#X floatatom 241 196 5 0 0 0 - - -;
#X obj 330 16 loadbang;
#X msg 302 69 50;
#X msg 324 98 100;
#X msg 331 136 45;
#X msg 334 169 1000;
#X obj 69 249 *~;
#X obj 185 244 *~;
#X obj 183 281 dac~;
#X connect 0 0 2 0;
#X connect 1 0 3 0;
#X connect 2 0 4 0;
#X connect 3 0 19 1;
#X connect 4 0 19 0;
#X connect 5 0 20 0;
#X connect 6 0 7 0;
#X connect 6 1 10 0;
#X connect 6 1 11 0;
#X connect 7 0 9 0;
#X connect 9 0 5 1;
#X connect 10 0 11 1;
#X connect 11 0 12 0;
#X connect 11 0 20 1;
#X connect 12 0 13 0;
#X connect 14 0 15 0;
#X connect 14 0 16 0;
#X connect 14 0 17 0;
#X connect 14 0 18 0;
#X connect 15 0 11 2;
#X connect 16 0 11 3;
#X connect 17 0 11 4;
#X connect 18 0 11 5;
#X connect 19 0 5 0;
#X connect 20 0 21 0;
#X connect 20 0 21 1;
