#N canvas 855 97 585 705 10;
#X obj 308 -1111 vsl 15 128 0 8 0 0 empty empty empty 0 -9 0 10 -262144
-1 -1 7700 1;
#X obj 256 -1108 vsl 15 128 0 7 0 0 empty empty empty 0 -9 0 10 -262144
-1 -1 4100 1;
#X floatatom 245 -941 5 0 0 0 - - -;
#X floatatom 318 -950 5 0 0 0 - - -;
#X obj 251 -885 osc~;
#X obj 271 -843 *~;
#X obj 326 -818 +~;
#X obj 356 -884 notein;
#X obj 367 -849 mtof;
#X floatatom 415 -814 5 0 0 0 - - -;
#X obj 329 -768 osc~;
#X obj 546 -884 / 127;
#X msg 622 -884 50;
#X msg 650 -850 100;
#X msg 683 -810 45;
#X msg 705 -767 1000;
#X obj 529 -791 adsr 1 1 1 1;
#X obj 535 -712 env~;
#X floatatom 543 -675 5 0 0 0 - - -;
#X obj 387 -735 osc~;
#X obj 382 -697 *~ 0.3;
#X obj 338 -657 +~;
#X obj 339 -627 *~;
#X obj 341 -578 dac~;
#X obj 381 -768 *~ 2.77;
#X obj 54 -1115 notein;
#X obj 71 -1071 moses 1;
#X msg 65 -1011 0 500;
#X msg 130 -1014 2 1000;
#X obj 72 -953 line;
#X obj 32 -871 notein;
#X obj 49 -827 moses 1;
#X obj 50 -709 line;
#X msg 43 -767 2 500;
#X msg 108 -770 5 500;
#X connect 0 0 3 0;
#X connect 1 0 2 0;
#X connect 2 0 4 0;
#X connect 3 0 5 1;
#X connect 4 0 5 0;
#X connect 5 0 6 0;
#X connect 6 0 10 0;
#X connect 6 0 24 0;
#X connect 7 0 8 0;
#X connect 7 1 11 0;
#X connect 7 1 16 0;
#X connect 8 0 6 1;
#X connect 10 0 21 0;
#X connect 11 0 16 1;
#X connect 12 0 16 2;
#X connect 13 0 16 3;
#X connect 14 0 16 4;
#X connect 15 0 16 5;
#X connect 16 0 17 0;
#X connect 16 0 22 1;
#X connect 17 0 18 0;
#X connect 19 0 20 0;
#X connect 20 0 21 1;
#X connect 21 0 22 0;
#X connect 22 0 23 0;
#X connect 22 0 23 1;
#X connect 24 0 19 0;
#X connect 25 0 26 0;
#X connect 26 0 27 0;
#X connect 26 1 28 0;
#X connect 27 0 29 0;
#X connect 28 0 29 0;
#X connect 29 0 0 0;
#X connect 30 0 31 0;
#X connect 31 0 33 0;
#X connect 31 1 34 0;
#X connect 32 0 1 0;
#X connect 33 0 32 0;
#X connect 34 0 32 0;
