#N canvas 343 348 773 462 10;
#X obj 178 13 inlet;
#X obj 182 50 unpack f f;
#X floatatom 167 104 5 0 0 0 - - -;
#X obj 203 142 mtof;
#X obj 214 194 osc~;
#X obj 317 244 *~;
#X obj 318 277 outlet~;
#X obj 570 82 / 127;
#X obj 559 141 adsr 1 1 1 1;
#X obj 566 190 env~;
#X floatatom 570 236 5 0 0 0 - - -;
#X obj 659 56 loadbang;
#X msg 631 109 50;
#X msg 653 138 100;
#X msg 660 176 45;
#X msg 663 209 1000;
#X obj 514 284 *~;
#X obj 512 321 dac~;
#X obj 254 267 *~;
#X obj 220 288 *~;
#X obj 143 156 vsl 15 128 0 7 0 0 empty empty empty 0 -9 0 10 -262144
-1 -1 0 1;
#X obj 172 164 vsl 15 128 0 8 0 0 empty empty empty 0 -9 0 10 -262144
-1 -1 0 1;
#X floatatom 138 321 5 0 0 0 - - -;
#X floatatom 199 318 5 0 0 0 - - -;
#X obj 145 362 osc~;
#X obj 20 93 notein;
#X obj 22 133 moses 1;
#X obj 32 255 line;
#X msg 24 177 0 500;
#X msg 28 202 2 1000;
#X obj 11 286 notein;
#X obj 13 326 moses 1;
#X obj 23 436 line;
#X msg 66 383 1 1000;
#X msg 15 370 0 1000;
#X connect 0 0 1 0;
#X connect 1 0 3 0;
#X connect 1 0 2 0;
#X connect 1 1 7 0;
#X connect 1 1 8 0;
#X connect 3 0 4 0;
#X connect 4 0 18 1;
#X connect 5 0 6 0;
#X connect 7 0 8 1;
#X connect 8 0 9 0;
#X connect 8 0 5 1;
#X connect 9 0 10 0;
#X connect 11 0 12 0;
#X connect 11 0 13 0;
#X connect 11 0 14 0;
#X connect 11 0 15 0;
#X connect 12 0 8 2;
#X connect 13 0 8 3;
#X connect 14 0 8 4;
#X connect 15 0 8 5;
#X connect 16 0 17 0;
#X connect 16 0 17 1;
#X connect 18 0 5 0;
#X connect 19 0 18 0;
#X connect 20 0 22 0;
#X connect 21 0 23 0;
#X connect 22 0 24 0;
#X connect 23 0 19 1;
#X connect 24 0 19 0;
#X connect 25 1 26 0;
#X connect 26 0 28 0;
#X connect 26 1 29 0;
#X connect 27 0 20 0;
#X connect 28 0 27 0;
#X connect 29 0 27 0;
#X connect 30 1 31 0;
#X connect 31 0 34 0;
#X connect 31 1 33 0;
#X connect 32 0 21 0;
#X connect 33 0 32 0;
#X connect 34 0 32 0;
