#N canvas 848 176 450 300 10;
#X obj 17 3 inlet;
#X obj 21 40 unpack f f;
#X floatatom 6 94 5 0 0 0 - - -;
#X obj 42 132 mtof;
#X obj 53 184 osc~;
#X obj 56 226 *~;
#X obj 57 259 outlet~;
#X obj 118 83 / 127;
#X floatatom 129 130 5 0 0 0 - - -;
#X obj 240 100 loadbang;
#X msg 217 122 50;
#X msg 256 124 20;
#X msg 291 147 30;
#X msg 324 173 150;
#X obj 194 170 adsr 1 1 1;
#X obj 187 210 env~;
#X floatatom 199 247 5 0 0 0 - - -;
#X connect 0 0 1 0;
#X connect 1 0 3 0;
#X connect 1 0 2 0;
#X connect 1 1 7 0;
#X connect 1 1 14 0;
#X connect 3 0 4 0;
#X connect 4 0 5 0;
#X connect 5 0 6 0;
#X connect 7 0 8 0;
#X connect 7 0 14 1;
#X connect 9 0 10 0;
#X connect 9 0 11 0;
#X connect 9 0 12 0;
#X connect 9 0 13 0;
#X connect 10 0 14 2;
#X connect 11 0 14 3;
#X connect 12 0 14 4;
#X connect 13 0 14 5;
#X connect 14 0 15 0;
#X connect 14 0 5 1;
