#N canvas 56 44 749 791 10;
#X msg 513 104 open lightsbreak.wav;
#X msg 549 222 start;
#X msg 557 277 stop;
#X obj 421 275 readsf~;
#X obj 409 324 *~;
#X obj 430 373 *~;
#X msg 484 353 0.25;
#X obj 417 433 dac~;
#X msg 511 379 1;
#X msg 497 412 0;
#X obj 330 79 vsl 15 128 0 1 0 0 empty empty Gain 0 -9 0 10 -262144
-1 -1 10500 1;
#X floatatom 358 241 5 0 0 0 - - -;
#X obj 274 195 vsl 15 128 0 11 0 0 empty empty Depth 0 -9 0 10 -262144
-1 -1 12700 1;
#X floatatom 294 347 5 0 0 0 - - -;
#X obj 332 425 +~;
#X obj 264 417 *~;
#X obj 232 190 vsl 15 128 0 600 0 0 empty empty Modulator 0 -9 0 10
-262144 -1 -1 10583 1;
#X floatatom 176 349 5 0 0 0 - - -;
#X msg 70 37 200 \, 500 1000;
#X msg 216 35 3 \, 8 \, 1000;
#X msg 162 11 3 1;
#X obj 164 108 line;
#X obj 72 130 line;
#X msg 27 77 200 1;
#X obj 236 365 osc~;
#X obj 474 320 bng 15 250 50 0 empty empty empty 17 7 0 10 -262144
-1 -1;
#X obj 499 63 bng 15 250 50 0 empty empty empty 17 7 0 10 -262144 -1
-1;
#X connect 0 0 3 0;
#X connect 1 0 3 0;
#X connect 2 0 3 0;
#X connect 3 0 4 0;
#X connect 3 1 25 0;
#X connect 4 0 5 0;
#X connect 5 0 7 0;
#X connect 5 0 7 1;
#X connect 6 0 5 1;
#X connect 8 0 5 1;
#X connect 9 0 5 1;
#X connect 10 0 14 0;
#X connect 10 0 11 0;
#X connect 12 0 13 0;
#X connect 12 0 15 1;
#X connect 14 0 4 1;
#X connect 15 0 14 1;
#X connect 16 0 24 0;
#X connect 16 0 17 0;
#X connect 18 0 22 0;
#X connect 19 0 21 0;
#X connect 20 0 21 0;
#X connect 21 0 12 0;
#X connect 22 0 16 0;
#X connect 23 0 22 0;
#X connect 24 0 15 0;
#X connect 25 0 23 0;
#X connect 25 0 20 0;
#X connect 26 0 19 0;
#X connect 26 0 18 0;
#X connect 26 0 1 0;
#X connect 26 0 0 0;
